<svg viewBox="0 0 100 100" xmlns="http://www.w3.org/2000/svg">
  <path fill-rule="evenodd" fill="#FFFDD0" d="
    M 99 50 A 49 49 0 1 0 1 50 A 49 49 0 1 0 99 50 Z
    M 65 50 A 15 15 0 1 0 35 50 A 15 15 0 1 0 65 50 Z
    M 63.5 16.5 C 72.5 12.5 82.5 19.0 82.0 30.0 C 81.5 39.5 72.8 45.0 64.8 41.2 C 58.2 38.0 57.0 26.0 63.5 16.5 Z
    M 36.5 83.5 C 27.5 87.5 17.5 81.0 18.0 70.0 C 18.5 60.5 27.2 55.0 35.2 58.8 C 41.8 62.0 43.0 74.0 36.5 83.5 Z
    M 53.5 50 A 3.5 3.5 0 1 0 46.5 50 A 3.5 3.5 0 1 0 53.5 50 Z
  "/>
</svg>
